<svg data-v-fde0c5aa="" xmlns="http://www.w3.org/2000/svg" viewBox="0 0 300 300" class="iconAbove"><!----><defs data-v-fde0c5aa=""><!----></defs><rect data-v-fde0c5aa="" fill="transparent" x="0" y="0" width="300px" height="300px" class="logo-background-square"></rect><defs data-v-fde0c5aa=""><!----></defs><g data-v-fde0c5aa="" id="0f73bcc7-7fc0-4999-bce9-a119e7eaaf9c" fill="#000000" transform="matrix(5.1312411648204375,0,0,5.1312411648204375,18.204065469974523,156.09722234037804)"><path d="M9.10 5.56C9.00 5.50 8.89 5.45 8.78 5.45C8.36 5.45 7.22 5.43 7.11 5.57C5.80 7.07 5.33 8.06 4.68 8.85C4.05 8.04 3.40 7.28 2.84 6.45C2.67 6.20 2.52 5.68 2.42 5.59C2.25 5.45 1.81 5.50 1.71 5.50C1.60 5.50 0.90 5.63 0.78 5.63C0.66 5.63 0.57 5.64 0.35 5.61C0.73 6.24 1.16 7.27 1.54 7.62C2.51 8.47 3.37 9.90 3.91 10.98C3.99 11.13 3.92 11.35 3.91 11.47C3.88 11.90 4.02 12.47 4.02 12.78C4.02 12.89 3.92 13.30 3.93 13.43L3.93 15.11L5.42 15.11C5.50 14.88 5.52 14.56 5.52 14.46C5.52 14.35 5.33 11.33 5.33 11.21C5.33 11.09 5.32 10.75 5.39 10.61C5.87 9.66 9.10 6.01 9.10 5.75ZM17.46 5.61C16.93 5.60 16.37 5.56 15.72 5.50C15.82 5.84 15.76 6.24 15.82 6.69C15.92 7.46 15.71 8.57 15.71 8.79L15.71 11.62C15.71 12.19 15.33 13.44 14.43 13.50C14.13 13.51 13.55 13.76 13.45 13.76C13.03 13.76 12.68 13.50 12.29 13.22C12.14 13.10 11.87 12.98 11.80 12.84C11.61 12.45 11.56 11.75 11.56 11.63L11.56 9.80C11.56 9.69 11.47 9.37 11.47 9.25C11.47 9.14 11.55 8.78 11.56 8.60C11.65 6.59 11.59 5.96 11.55 5.54C10.79 5.77 10.43 5.54 10.05 5.68C10.00 5.64 10.00 5.59 10.00 5.54C9.94 5.88 9.83 8.57 9.83 8.67C9.83 8.79 9.97 10.19 9.98 10.93C10.01 11.68 10.00 12.45 10.18 13.17C10.23 13.43 10.56 13.72 10.65 13.93C11.17 14.95 12.52 15.20 13.40 15.20C14.66 15.20 13.79 15.33 15.13 14.84C17.86 13.86 17.42 10.77 17.37 8.97C17.35 7.85 17.49 6.61 17.46 5.61ZM29.44 7.90C29.44 7.29 29.46 6.09 29.25 5.70C29.12 5.63 27.85 5.49 27.76 5.49C27.57 5.49 27.37 5.63 27.30 5.78C26.25 8.09 25.16 10.44 24.16 12.78C24.12 12.82 24.11 12.82 24.07 12.82C23.46 12.25 23.14 10.67 22.82 9.86C22.58 9.24 22.04 8.53 21.84 8.06C21.71 7.73 21.49 7.18 21.25 6.78C21.06 6.47 20.93 5.95 20.73 5.73C20.52 5.50 20.15 5.49 20.05 5.49C19.94 5.49 19.61 5.61 19.38 5.66C19.15 5.70 18.91 5.68 18.73 5.68C18.68 7.24 18.58 8.82 18.42 10.32C18.40 10.64 18.31 11.23 18.31 11.33C18.31 11.44 18.45 12.50 18.45 12.61L18.45 14.29C18.45 14.36 18.58 15.06 18.87 15.15C19.05 15.19 19.45 15.15 19.54 15.15C19.66 15.15 20.08 15.15 20.27 15.09C20.27 14.41 20.31 13.71 20.26 13.06C20.23 12.74 20.17 12.33 20.20 12.07C20.22 11.91 20.33 11.62 20.33 11.52L20.33 9.95C20.33 9.69 20.13 9.17 20.38 9.10C20.48 9.20 20.57 9.30 20.58 9.37C20.75 10.05 21.14 10.86 21.35 11.24C21.46 11.47 21.84 11.72 21.95 11.94C22.74 13.37 22.76 14.28 23.53 15.15L24.67 15.15C25.70 13.79 26.54 10.78 27.68 9.30C27.72 9.34 27.69 9.34 27.69 9.45C27.69 9.56 27.58 10.64 27.62 11.19C27.64 11.40 27.65 11.58 27.64 11.69C27.61 11.86 27.65 12.10 27.65 12.21L27.65 13.79C27.65 14.18 27.45 13.99 27.75 15.09C27.93 15.11 28.20 15.15 28.29 15.15C28.41 15.15 28.60 15.08 28.74 15.04C28.88 14.99 29.06 14.99 29.20 15.01C29.25 14.50 29.30 13.58 29.30 13.45C29.30 13.34 29.26 12.61 29.26 10.56C29.26 9.67 29.44 8.01 29.44 7.90ZM41.47 7.90C41.47 7.29 41.48 6.09 41.27 5.70C41.15 5.63 39.87 5.49 39.79 5.49C39.59 5.49 39.40 5.63 39.33 5.78C38.28 8.09 37.18 10.44 36.19 12.78C36.15 12.82 36.13 12.82 36.09 12.82C35.49 12.25 35.17 10.67 34.85 9.86C34.61 9.24 34.06 8.53 33.87 8.06C33.74 7.73 33.52 7.18 33.28 6.78C33.08 6.47 32.96 5.95 32.76 5.73C32.55 5.50 32.17 5.49 32.07 5.49C31.96 5.49 31.64 5.61 31.40 5.66C31.18 5.70 30.94 5.68 30.76 5.68C30.70 7.24 30.60 8.82 30.45 10.32C30.42 10.64 30.34 11.23 30.34 11.33C30.34 11.44 30.48 12.50 30.48 12.61L30.48 14.29C30.48 14.36 30.60 15.06 30.90 15.15C31.08 15.19 31.47 15.15 31.57 15.15C31.68 15.15 32.10 15.15 32.30 15.09C32.30 14.41 32.34 13.71 32.28 13.06C32.26 12.74 32.20 12.33 32.23 12.07C32.24 11.91 32.35 11.62 32.35 11.52L32.35 9.95C32.35 9.69 32.16 9.17 32.41 9.10C32.51 9.20 32.59 9.30 32.61 9.37C32.77 10.05 33.17 10.86 33.38 11.24C33.49 11.47 33.87 11.72 33.98 11.94C34.76 13.37 34.79 14.28 35.56 15.15L36.69 15.15C37.73 13.79 38.57 10.78 39.70 9.30C39.75 9.34 39.72 9.34 39.72 9.45C39.72 9.56 39.61 10.64 39.65 11.19C39.66 11.40 39.68 11.58 39.66 11.69C39.63 11.86 39.68 12.10 39.68 12.21L39.68 13.79C39.68 14.18 39.48 13.99 39.77 15.09C39.96 15.11 40.22 15.15 40.32 15.15C40.43 15.15 40.63 15.08 40.77 15.04C40.91 14.99 41.09 14.99 41.23 15.01C41.27 14.50 41.33 13.58 41.33 13.45C41.33 13.34 41.29 12.61 41.29 10.56C41.29 9.67 41.47 8.01 41.47 7.90ZM51.02 5.56C50.92 5.50 50.81 5.45 50.69 5.45C50.27 5.45 49.14 5.43 49.03 5.57C47.71 7.07 47.25 8.06 46.59 8.85C45.96 8.04 45.32 7.28 44.76 6.45C44.59 6.20 44.44 5.68 44.34 5.59C44.17 5.45 43.72 5.50 43.62 5.50C43.51 5.50 42.81 5.63 42.70 5.63C42.57 5.63 42.49 5.64 42.27 5.61C42.64 6.24 43.08 7.27 43.46 7.62C44.42 8.47 45.29 9.90 45.82 10.98C45.91 11.13 45.84 11.35 45.82 11.47C45.79 11.90 45.93 12.47 45.93 12.78C45.93 12.89 45.84 13.30 45.85 13.43L45.85 15.11L47.33 15.11C47.42 14.88 47.43 14.56 47.43 14.46C47.43 14.35 47.25 11.33 47.25 11.21C47.25 11.09 47.24 10.75 47.31 10.61C47.78 9.66 51.02 6.01 51.02 5.75Z"></path></g><defs data-v-fde0c5aa=""><linearGradient data-v-fde0c5aa="" gradientTransform="rotate(25)" id="b0948ae7-a1d9-4eee-8121-d9de5fe976b5" x1="0%" y1="0%" x2="100%" y2="0%"><stop data-v-fde0c5aa="" offset="0%" stop-color="#EA1F59" stop-opacity="1"></stop><stop data-v-fde0c5aa="" offset="100%" stop-color="#FA9169" stop-opacity="1"></stop></linearGradient></defs><g data-v-fde0c5aa="" id="e6e9e0d7-f81d-4a9e-8b99-d4e07b972235" stroke="none" fill="url(#b0948ae7-a1d9-4eee-8121-d9de5fe976b5)" transform="matrix(1.3000350317328497,0,0,1.3000350317328497,85.0248734982034,50.32049597238017)"><path d="M30.103 31.092a6.65 6.65 0 0 1-1.962 4.733 1.592 1.592 0 0 0 2.25 2.25 9.808 9.808 0 0 0 2.894-6.982 9.804 9.804 0 0 0-2.892-6.982 6.65 6.65 0 0 1-1.961-4.734 6.65 6.65 0 0 1 1.962-4.733 1.592 1.592 0 0 0-2.25-2.25 9.808 9.808 0 0 0-2.894 6.982 9.811 9.811 0 0 0 2.893 6.984 6.647 6.647 0 0 1 1.96 4.732zM50.554 31.092a6.652 6.652 0 0 1-1.961 4.733 1.592 1.592 0 0 0 2.25 2.25 9.81 9.81 0 0 0 2.894-6.982 9.802 9.802 0 0 0-2.892-6.982 6.645 6.645 0 0 1-1.96-4.733c0-1.788.697-3.469 1.961-4.734a1.592 1.592 0 0 0-2.25-2.25 9.808 9.808 0 0 0-2.894 6.982 9.81 9.81 0 0 0 2.892 6.985 6.635 6.635 0 0 1 1.96 4.731zM70.468 31.092a6.657 6.657 0 0 1-1.962 4.733 1.59 1.59 0 1 0 2.249 2.25 9.813 9.813 0 0 0 2.895-6.982 9.803 9.803 0 0 0-2.893-6.982 6.65 6.65 0 0 1-1.96-4.734c0-1.787.696-3.468 1.961-4.732a1.59 1.59 0 1 0-2.249-2.25 9.81 9.81 0 0 0-2.894 6.983 9.803 9.803 0 0 0 2.893 6.984 6.643 6.643 0 0 1 1.96 4.73zM49.316 45.139c-11.369 0-21.431 5.681-27.515 14.348h55.03c-6.084-8.667-16.145-14.348-27.515-14.348zM80.643 59.487H94.66c-4.044-5.58-10.61-9.212-18.028-9.212-1.252 0-2.475.117-3.67.318a37.099 37.099 0 0 1 7.681 8.894zM27.719 48.992a22.28 22.28 0 0 0-3.277-.251c-8.079 0-15.153 4.305-19.052 10.746h12.6a37.04 37.04 0 0 1 9.729-10.495zM99.644 62.351a1.593 1.593 0 0 0-1.255-.614H1.57a1.592 1.592 0 0 0-1.542 1.982C3.02 75.507 13.169 84.141 25.333 85.207a13.178 13.178 0 0 1 8.11 3.405c.293.266.675.414 1.071.414h30.93c.396 0 .777-.148 1.07-.414a13.22 13.22 0 0 1 8.16-3.409c12.115-1.062 22.264-9.696 25.256-21.484a1.584 1.584 0 0 0-.286-1.368zM74.447 82.029a16.383 16.383 0 0 0-9.601 3.815H35.111c-2.696-2.27-6.078-3.618-9.55-3.812-10.077-.884-18.625-7.661-21.86-17.115h92.555c-3.235 9.455-11.778 16.232-21.809 17.112z"></path></g><!----></svg>